<svg width="26" height="30" viewBox="0 0 26 30" fill="none" xmlns="http://www.w3.org/2000/svg">
<path d="M13.615 0.9646C15.1497 0.941162 16.6731 0.95335 18.1956 0.941162C18.2462 2.84522 19.0187 4.55898 20.2478 5.82835L20.2459 5.82648C21.5687 7.01804 23.29 7.79054 25.1875 7.92179L25.2137 7.92366V12.6449C23.4212 12.5999 21.7356 12.1865 20.2159 11.4759L20.2928 11.5077C19.5578 11.1543 18.9362 10.7915 18.3456 10.3865L18.3944 10.4184C18.3831 13.8393 18.4056 17.2602 18.3709 20.669C18.2744 22.4062 17.6968 23.9905 16.7706 25.3134L16.7894 25.2843C15.2406 27.5024 12.7319 28.9584 9.87904 29.0446H9.86591C9.7506 29.0502 9.61466 29.053 9.47779 29.053C7.85591 29.053 6.33998 28.6012 5.0481 27.8165L5.0856 27.838C2.73435 26.4234 1.11248 24.0027 0.812476 21.1874L0.808726 21.149C0.785288 20.563 0.774038 19.9771 0.797476 19.4034C1.25685 14.923 5.0106 11.4571 9.57341 11.4571C10.0862 11.4571 10.5887 11.5012 11.0772 11.5846L11.0247 11.5771C11.0481 13.3105 10.9778 15.0449 10.9778 16.7783C10.5812 16.6349 10.1237 16.5515 9.64654 16.5515C7.89529 16.5515 6.4056 17.6709 5.85435 19.2337L5.84591 19.2618C5.72123 19.6621 5.64904 20.1224 5.64904 20.5987C5.64904 20.7918 5.66123 20.983 5.68373 21.1705L5.68185 21.148C5.9931 23.0662 7.63748 24.5137 9.62029 24.5137C9.67748 24.5137 9.73373 24.5127 9.78998 24.5099H9.78154C11.1531 24.4687 12.3437 23.7309 13.0169 22.6405L13.0262 22.6237C13.2765 22.2749 13.4481 21.853 13.5053 21.3946L13.5062 21.3815C13.6234 19.2843 13.5765 17.1993 13.5878 15.1021C13.599 10.3808 13.5765 5.67085 13.6112 0.961787L13.615 0.9646Z" fill="white"/>
</svg>
