<svg width="35" height="35" viewBox="0 0 35 35" fill="none" xmlns="http://www.w3.org/2000/svg">
<path fill-rule="evenodd" clip-rule="evenodd" d="M0 6.70841C0 5.7028 0.399478 4.73838 1.11055 4.0273C1.82163 3.31623 2.78605 2.91675 3.79167 2.91675H31.2083C32.2139 2.91675 33.1784 3.31623 33.8894 4.0273C34.6005 4.73838 35 5.7028 35 6.70841V7.87508C35 8.88069 34.6005 9.84512 33.8894 10.5562C33.1784 11.2673 32.2139 11.6667 31.2083 11.6667H30.625V27.1251C30.625 29.0647 29.0646 30.6251 27.125 30.6251H7.875C5.93542 30.6251 4.375 29.0647 4.375 27.1251V11.6667H3.79167C2.78605 11.6667 1.82163 11.2673 1.11055 10.5562C0.399478 9.84512 0 8.88069 0 7.87508L0 6.70841ZM3.79167 5.83341C3.5596 5.83341 3.33704 5.9256 3.17295 6.0897C3.00885 6.25379 2.91667 6.47635 2.91667 6.70841V7.87508C2.91667 8.10715 3.00885 8.32971 3.17295 8.4938C3.33704 8.65789 3.5596 8.75008 3.79167 8.75008H31.2083C31.4404 8.75008 31.663 8.65789 31.8271 8.4938C31.9911 8.32971 32.0833 8.10715 32.0833 7.87508V6.70841C32.0833 6.47635 31.9911 6.25379 31.8271 6.0897C31.663 5.9256 31.4404 5.83341 31.2083 5.83341H3.79167ZM11.6667 14.5834C11.2799 14.5834 10.909 14.7371 10.6355 15.0106C10.362 15.284 10.2083 15.655 10.2083 16.0417C10.2083 16.4285 10.362 16.7995 10.6355 17.0729C10.909 17.3464 11.2799 17.5001 11.6667 17.5001H23.3333C23.7201 17.5001 24.091 17.3464 24.3645 17.0729C24.638 16.7995 24.7917 16.4285 24.7917 16.0417C24.7917 15.655 24.638 15.284 24.3645 15.0106C24.091 14.7371 23.7201 14.5834 23.3333 14.5834H11.6667Z" fill="#0056AC"/>
</svg>
