<svg width="35" height="35" viewBox="0 0 35 35" fill="none" xmlns="http://www.w3.org/2000/svg">
<g clip-path="url(#clip0_108_1821)">
<path d="M0 14.245C0 12.3317 0.373333 10.4883 1.12 8.715C1.86667 6.94167 2.88167 5.425 4.165 4.165C5.44833 2.905 6.965 1.90167 8.715 1.155C10.465 0.408333 12.3083 0.0233333 14.245 0C16.1817 0 18.025 0.385 19.775 1.155C21.525 1.925 23.0417 2.92833 24.325 4.165C25.6083 5.40167 26.6233 6.91833 27.37 8.715C28.1167 10.5117 28.49 12.355 28.49 14.245C28.49 16.8817 27.7667 19.3667 26.32 21.7L34.055 29.4C34.685 30.0533 35 30.835 35 31.745C35 32.655 34.685 33.425 34.055 34.055C33.425 34.685 32.6433 35 31.71 35C30.7767 35 30.0067 34.685 29.4 34.055L21.7 26.355C19.3667 27.7783 16.8817 28.49 14.245 28.49C12.3083 28.49 10.465 28.1167 8.715 27.37C6.965 26.6233 5.44833 25.6083 4.165 24.325C2.88167 23.0417 1.86667 21.5367 1.12 19.81C0.373333 18.0833 0 16.2283 0 14.245ZM4.375 14.245C4.375 16.0417 4.81833 17.6983 5.705 19.215C6.59167 20.7317 7.79333 21.9217 9.31 22.785C10.8267 23.6483 12.4717 24.0917 14.245 24.115C15.575 24.115 16.8467 23.8583 18.06 23.345C19.2733 22.8317 20.3233 22.1317 21.21 21.245C22.0967 20.3583 22.7967 19.3083 23.31 18.095C23.8233 16.8817 24.0917 15.5983 24.115 14.245C24.1383 12.8917 23.87 11.6083 23.31 10.395C22.75 9.18167 22.05 8.14333 21.21 7.28C20.37 6.41667 19.32 5.71667 18.06 5.18C16.8 4.64333 15.5283 4.375 14.245 4.375C12.4717 4.375 10.8267 4.81833 9.31 5.705C7.79333 6.59167 6.59167 7.79333 5.705 9.31C4.81833 10.8267 4.375 12.4717 4.375 14.245Z" fill="#0056AC"/>
</g>
<defs>
<clipPath id="clip0_108_1821">
<rect width="35" height="35" fill="white"/>
</clipPath>
</defs>
</svg>
