<svg width="30" height="31" viewBox="0 0 30 31" fill="none" xmlns="http://www.w3.org/2000/svg">
<path d="M14.2673 0.018885C6.27839 0.395012 -0.0240034 6.99981 6.87278e-05 14.9391C0.00402648 17.2761 0.563542 19.5786 1.63246 21.6567L0.0406905 29.3312C0.0212687 29.4272 0.026354 29.5265 0.0554763 29.62C0.0845986 29.7134 0.136818 29.798 0.207304 29.866C0.277791 29.9339 0.36427 29.983 0.458745 30.0086C0.553219 30.0343 0.652639 30.0357 0.74781 30.0128L8.32151 28.2314C10.3274 29.2227 12.5295 29.7532 14.7668 29.7841C22.9318 29.909 29.7382 23.4727 29.9925 15.3709C30.2663 6.68236 23.0461 -0.397864 14.2673 0.0173804V0.018885ZM23.3049 23.1387C22.2134 24.2263 20.9179 25.0879 19.4928 25.6739C18.0677 26.26 16.5409 26.559 15 26.5539C13.1871 26.5595 11.3977 26.1433 9.77336 25.3383L8.7187 24.8162L4.07428 25.9085L5.05221 21.1979L4.53165 20.1868C3.68777 18.551 3.25016 16.7361 3.25583 14.8955C3.25583 11.7811 4.47749 8.85186 6.69513 6.65076C8.90555 4.46276 11.8898 3.23498 15 3.23402C18.1384 3.23402 21.0873 4.44666 23.3049 6.64926C24.3975 7.72594 25.2645 9.0096 25.8553 10.4252C26.4461 11.8408 26.7488 13.36 26.7457 14.894C26.7457 17.9812 25.5045 20.9571 23.3049 23.1402V23.1387Z" fill="white"/>
<path d="M22.2803 18.1226L19.3751 17.2952C19.1877 17.2414 18.9892 17.2389 18.8005 17.2882C18.6117 17.3374 18.4397 17.4365 18.3024 17.575L17.5923 18.2942C17.4454 18.443 17.2578 18.5452 17.0531 18.588C16.8484 18.6308 16.6356 18.6123 16.4413 18.5349C15.0677 17.9827 12.1761 15.4311 11.4374 14.1538C11.3338 13.9733 11.2865 13.7661 11.3015 13.5586C11.3165 13.3512 11.3932 13.1529 11.5216 12.9893L12.1415 12.1919C12.2608 12.0391 12.3363 11.8567 12.3599 11.6643C12.3835 11.4719 12.3543 11.2767 12.2754 11.0996L11.0537 8.35537C10.9846 8.20199 10.8809 8.06672 10.7507 7.96021C10.6205 7.85369 10.4673 7.77883 10.3033 7.7415C10.1392 7.70417 9.96879 7.7054 9.80531 7.74509C9.64183 7.78477 9.48979 7.86184 9.36113 7.97022C8.5502 8.65176 7.58731 9.68536 7.47146 10.8333C7.26535 12.8539 8.13796 15.401 11.4389 18.4612C15.2528 21.9953 18.3084 22.4632 20.2959 21.9832C21.4243 21.7124 22.327 20.6246 22.8942 19.7355C22.9849 19.5942 23.0412 19.4337 23.0586 19.2667C23.0759 19.0998 23.0539 18.9311 22.9942 18.7742C22.9345 18.6173 22.8388 18.4766 22.7148 18.3635C22.5908 18.2503 22.442 18.1678 22.2803 18.1226Z" fill="white"/>
</svg>
