<svg width="40" height="40" viewBox="0 0 40 40" fill="none" xmlns="http://www.w3.org/2000/svg">
<path d="M19.0301 0.023163C8.46611 0.526158 0.129666 9.32389 0.161713 19.8998C0.171471 23.121 0.949114 26.1613 2.32092 28.8477L0.21471 39.0715C0.100776 39.6245 0.599562 40.1088 1.14895 39.9787L11.1671 37.6052C13.7409 38.8873 16.6318 39.6278 19.6914 39.6745C30.4888 39.8394 39.4919 31.266 39.8284 20.4726C40.1892 8.90288 30.6403 -0.529768 19.0301 0.023163ZM30.9838 30.8223C28.0499 33.7562 24.1491 35.3719 20 35.3719C17.5705 35.3719 15.2446 34.8269 13.0865 33.7519L11.6914 33.0569L5.54926 34.5121L6.84214 28.236L6.1548 26.89C5.03449 24.696 4.46645 22.3234 4.46645 19.8384C4.46645 15.6892 6.08219 11.7885 9.01608 8.85447C11.9238 5.9468 15.8882 4.30475 20.0003 4.30475C24.1494 4.30484 28.05 5.92059 30.9839 8.85438C33.9178 11.7883 35.5335 15.689 35.5336 19.8381C35.5335 23.9503 33.8915 27.9147 30.9838 30.8223Z" fill="#128C7E"/>
<path d="M29.6279 24.1406L25.7852 23.0373C25.28 22.8922 24.736 23.0355 24.3679 23.4106L23.4282 24.368C23.0319 24.7717 22.4307 24.9014 21.9063 24.6893C20.0885 23.9536 16.2646 20.5538 15.2881 18.8532C15.0064 18.3626 15.053 17.7493 15.3989 17.3017L16.2193 16.2403C16.5407 15.8245 16.6085 15.266 16.396 14.7853L14.7793 11.1288C14.392 10.253 13.2729 9.99803 12.5417 10.6164C11.4692 11.5235 10.1967 12.9019 10.042 14.4289C9.76931 17.1213 10.924 20.5152 15.2903 24.5904C20.3346 29.2985 24.3741 29.9205 27.0041 29.2834C28.4959 28.9221 29.688 27.4735 30.4404 26.2875C30.9534 25.4789 30.5483 24.405 29.6279 24.1406Z" fill="#128C7E"/>
</svg>
